<?xml version="1.0" standalone="no"?><!DOCTYPE svg PUBLIC "-//W3C//DTD SVG 1.1//EN" "http://www.w3.org/Graphics/SVG/1.1/DTD/svg11.dtd"><svg t="1753601700619" class="icon" viewBox="0 0 2735 1024" version="1.1" xmlns="http://www.w3.org/2000/svg" p-id="52487" xmlns:xlink="http://www.w3.org/1999/xlink" width="534.1796875" height="200"><path d="M504.766399 760.374255H157.555699V114.719636h332.621854v74.194826H240.92084v206.742903h230.918217v73.776539H240.92084v217.163812h263.847693v73.776539zM698.171051 695.351878v277.185945h-81.696259v-673.165563h81.696259v79.613358h1.666748c36.119986-60.295301 88.920256-90.45042 158.392273-90.450421 58.908122 0 105.105424 20.632675 138.591906 61.898025 33.482213 41.26535 50.226521 96.637235 50.226521 166.102851 0 76.696015-18.965927 138.318738-56.895647 184.859633-37.92972 46.547298-88.990682 69.817745-153.180752 69.817746-59.187692 0-104.902683-25.282923-137.134301-75.861574h-1.666748z m-0.416154-125.046645c0 37.513566 12.087657 69.128424 36.262972 94.827501 24.175315 25.705479 54.460616 38.555017 90.866574 38.555018 43.350385 0 77.248752-16.673882 101.703636-50.019512 24.450616-33.34563 36.68126-79.468237 36.68126-138.384896 0-49.737807-11.396202-88.711112-34.180071-116.91778-22.788136-28.200266-53.912147-42.306801-93.367762-42.306801-40.294325 0-73.360385 14.315679-99.202448 42.932098-25.842063 28.624955-38.764161 65.304081-38.764161 110.041645v61.272727zM1408.85018 380.234078c-13.617822-9.723052-32.374605-14.588846-56.27035-14.588846-31.678882 0-57.800514 14.79799-78.362762 44.391836-20.566517 29.593846-30.844441 68.567151-30.844441 116.91778v233.419407h-81.696259V299.37226h81.696259v93.783916h1.666748c23.343008-67.798867 63.630931-101.703637 120.878707-101.703636 18.613797 0 32.929476 2.085036 42.932098 6.252972v82.528566zM1851.097526 550.714009H1528.478293c1.387178 49.18507 14.862014 87.18735 40.430909 114.000438 25.562493 26.81949 61.272728 40.223899 107.122168 40.223899 51.686259 0 99.059462-16.528762 142.136679-49.601224v72.944232c-40.573895 28.624955-94.34519 42.932098-161.309616 42.932098-66.691259 0-118.727514-21.114986-156.100228-63.357764-37.376983-42.236375-56.06334-100.87133-56.06334-175.898462 0-70.579626 20.489689-128.798428 61.481871-174.647868 40.98578-45.84944 91.908024-68.776295 152.764599-68.776295 60.295301 0 107.397469 19.38208 141.302238 58.146242 33.898367 38.764161 50.851818 93.022035 50.851818 162.769354v41.26535z m-81.696259-65.440664c-0.27957-41.681503-10.145608-73.913122-29.593846-96.703393-19.454641-22.781734-46.826867-34.180071-82.114547-34.180071-32.511189 0-60.64743 12.087657-84.406591 36.262972s-38.698003 55.717613-44.80799 94.618357h240.922974zM1934.044379 660.755654c41.122364 29.738966 85.448042 44.598846 132.966365 44.598845 63.630931 0 95.452798-20.841819 95.452798-62.523322 0-17.779356-6.948696-32.440763-20.841819-43.973548-13.897391-11.526384-42.099791-25.216765-84.613601-41.056206-51.131388-20.560115-84.340434-40.91322-99.620735-61.063584-15.286704-20.143961-22.92472-44.52842-22.924721-73.151241 0-40.849196 17.297045-73.569529 51.893269-98.160997s77.178326-36.888269 127.754843-36.88827c39.180314 0 75.582004 6.812112 109.207204 20.423532v78.778916c-34.45964-22.228997-73.503371-33.34563-117.126924-33.345629-26.123766 0-47.381739 5.698101-63.773917 17.090035-16.39858 11.398336-24.591468 26.403336-24.591468 45.017133 0 18.34063 5.900843 32.656309 17.715333 42.932098 11.808088 10.284326 37.995878 23.485994 78.569772 39.598602 51.404555 19.172937 86.139497 39.043731 104.204826 59.60598 18.058926 20.568651 27.092657 45.99456 27.092657 76.277727 0 42.242777-17.297045 75.515846-51.893269 99.827745-34.596224 24.320435-79.404214 36.472116-134.423969 36.472116-47.797892 0-89.479396-9.033731-125.046644-27.092657v-83.367275zM2329.189555 660.755654c41.122364 29.738966 85.448042 44.598846 132.966365 44.598845 63.630931 0 95.452798-20.841819 95.452798-62.523322 0-17.779356-6.948696-32.440763-20.841819-43.973548-13.897391-11.526384-42.099791-25.216765-84.613601-41.056206-51.131388-20.560115-84.340434-40.91322-99.620735-61.063584-15.286704-20.143961-22.92472-44.52842-22.92472-73.151241 0-40.849196 17.297045-73.569529 51.893269-98.160997s77.178326-36.888269 127.754843-36.88827c39.180314 0 75.582004 6.812112 109.207203 20.423532v78.778916c-34.45964-22.228997-73.503371-33.34563-117.126924-33.345629-26.123766 0-47.381739 5.698101-63.773916 17.090035-16.39858 11.398336-24.591468 26.403336-24.591468 45.017133 0 18.34063 5.900843 32.656309 17.715332 42.932098 11.808088 10.284326 37.995878 23.485994 78.569773 39.598602 51.404555 19.172937 86.139497 39.043731 104.204825 59.60598 18.058926 20.568651 27.092657 45.99456 27.092657 76.277727 0 42.242777-17.297045 75.515846-51.893269 99.827745-34.596224 24.320435-79.404214 36.472116-134.423968 36.472116-47.797892 0-89.479396-9.033731-125.046645-27.092657v-83.367275z" fill="#1296db" p-id="52488"></path></svg>