<?xml version="1.0" standalone="no"?><!DOCTYPE svg PUBLIC "-//W3C//DTD SVG 1.1//EN" "http://www.w3.org/Graphics/SVG/1.1/DTD/svg11.dtd"><svg t="1753602315077" class="icon" viewBox="0 0 1024 1024" version="1.1" xmlns="http://www.w3.org/2000/svg" p-id="71671" xmlns:xlink="http://www.w3.org/1999/xlink" width="200" height="200"><path d="M505.26758 529.671066c15.709484-4.396033 30.828915-8.821603 45.261773-13.217636 12.594593-3.77299 25.48225-7.541524 38.700417-11.314012 13.184735-3.772488 24.205594-7.251351 32.993765-10.366272l-13.184676 49.983387c-3.806421 13.842715-7.247928 24.205594-10.363853 31.125934-6.296824 16.991157-13.709933 32.701644-22.171549 47.163065-8.528538 14.462365-16.528839 27.056899-24.073786 37.749254-8.788171 12.594593-17.906852 24.205594-27.353003 34.898953l-116.038312 34.895028 95.279123 16.990124c-12.561102 10.689434-26.109277 21.710293-40.571642 33.027197-12.594593 9.412778-26.894668 19.31629-42.89828 29.7126-16.073455 10.397284-32.865439 19.97427-50.476186 28.763415-17.645714 8.792155-37.290979 13.383436-58.969788 13.709992-21.713214 0.297019-42.309111-1.116373-61.791113-4.263782-22.630886-3.149356-45.292785-8.49605-67.95663-16.037073 6.954332-10.693329 14.4968-22.663344 22.663846-35.849053 6.918894-11.346411 15.250707-24.696386 24.991959-40.076394 9.739777-15.415475 19.972322-32.567889 30.665652-51.425815 30.173886-50.96748 59.428093-100.952343 87.732229-150.019563 28.304107-49.063296 53.789779-93.407426 76.416741-133.025013 25.779298-45.918336 50.641426-89.275452 74.516039-130.17365-29.547833 33.944397-60.674297 72.02416-93.406924 114.166586-28.269701 35.815592-59.72219 78.453236-94.292109 127.814081-34.634362 49.360787-69.857362 103.312413-105.672984 161.791349-7.543471 11.937527-16.07198 25.775344-25.483725 41.518349-9.412749 15.709543-19.317264 32.406573-29.713574 49.983889-10.397786 17.615705-21.08964 35.684846-32.076093 54.248645-10.987427 18.561881-21.877008 36.634976-32.568361 54.245724-25.122764 40.868189-50.902063 83.634719-77.33639 128.305405 0.622099-13.185768 3.148884-30.174918 7.54297-50.935022 3.772459-17.609833 10.069755-39.649603 18.891387-66.053479 8.788673-26.402843 21.382734-57.558343 37.716855-93.374938 10.691382-22.629913 18.857926-40.274092 24.533123-52.835253 5.640762-12.565085 10.03535-22.337762 13.183231-29.25819 3.148884-7.540963 5.675669-12.561102 7.544947-15.08594-3.115453-3.772016-3.739529-11.312979-1.869277-22.663374 1.278633-10.036294 4.885881-24.663928 10.854645-43.849413 5.970741-19.188406 16.203287-46.079091 30.634197-80.650514 14.495325-35.222026 33.518491-73.137081 57.100009-113.675764 23.581016-40.571671 50.147182-80.812833 79.730423-120.76093 29.54978-39.948067 61.625903-78.615023 96.194346-116.038283 34.601403-37.419335 69.99159-70.57831 106.133768-99.506021 36.175579-28.961142 72.351218-52.674439 108.493395-71.235818 36.175579-18.56433 71.234844-29.125379 105.216066-31.617759 0.591176 22.007312-1.573675 51.100262-6.626242 87.24241-5.049646 36.208539-11.313983 74.842565-18.858929 116.038312-7.574454 41.191793-16.037073 83.040593-25.48225 125.480539-9.445236 42.442896-18.564832 80.978044-27.353977 115.579476L505.26758 529.671066z" fill="#2199EB" p-id="71672"></path></svg>