<?xml version="1.0" standalone="no"?><!DOCTYPE svg PUBLIC "-//W3C//DTD SVG 1.1//EN" "http://www.w3.org/Graphics/SVG/1.1/DTD/svg11.dtd"><svg t="1753287009346" class="icon" viewBox="0 0 1024 1024" version="1.1" xmlns="http://www.w3.org/2000/svg" p-id="18640" xmlns:xlink="http://www.w3.org/1999/xlink" width="200" height="200"><path d="M402.8416 145.631418a256.484073 256.484073 0 0 1 53.303855 40.680727c59.578182-59.205818 141.181673-83.167418 218.577454-71.903418l-0.130327-0.335127 119.156363 19.809745-23.7568 14.503564c17.314909 10.426182 33.661673 23.067927 48.612073 37.925236a253.579636 253.579636 0 0 1 0 360.187346l-225.000727 223.604364L567.854545 893.672727l-111.70909-18.618182a76.893091 76.893091 0 0 1-54.365091-22.379054L93.686691 546.499491a253.579636 253.579636 0 0 1 0-360.187346A256.558545 256.558545 0 0 1 288.954182 112.081455L288.581818 111.709091l3.630546 0.577164c15.639273 1.042618 31.241309 3.518836 46.545454 7.410036l71.2704 11.357091-7.186618 14.578036z" fill="#6D90FF" p-id="18641"></path><path d="M205.395782 204.930327c100.091345-99.476945 262.367418-99.476945 362.458763 0 100.091345-99.476945 262.367418-99.476945 362.458764 0a253.579636 253.579636 0 0 1 0 360.187346L622.219636 871.293673a77.228218 77.228218 0 0 1-108.730181 0L205.395782 565.117673a253.579636 253.579636 0 0 1 0-360.187346z" fill="#3766FF" p-id="18642"></path></svg>