<?xml version="1.0" standalone="no"?><!DOCTYPE svg PUBLIC "-//W3C//DTD SVG 1.1//EN" "http://www.w3.org/Graphics/SVG/1.1/DTD/svg11.dtd"><svg t="1753286808652" class="icon" viewBox="0 0 1024 1024" version="1.1" xmlns="http://www.w3.org/2000/svg" p-id="14739" xmlns:xlink="http://www.w3.org/1999/xlink" width="200" height="200"><path d="M728.693 408.71c-32.271 0-58.435 26.187-58.435 58.49 0 32.304 26.164 58.487 58.435 58.487s58.435-26.183 58.435-58.487c0-32.305-26.163-58.49-58.435-58.49z m-202.087 0c-31.601 0-57.216 26.187-57.216 58.49 0 32.304 25.613 58.487 57.216 58.487 31.602 0 57.219-26.183 57.219-58.487 0-32.305-25.618-58.49-57.219-58.49z m-202.086 0c-32.271 0-58.435 26.187-58.435 58.49 0 32.304 26.163 58.487 58.435 58.487 32.272 0 58.435-26.183 58.435-58.487 0-32.305-26.164-58.49-58.435-58.49z m479.652 390.755H688.315c0.892 0.59 1.352 0.9 1.352 0.9-282.478 0-489.651 109.857-489.651 109.857V800.364c0.066-1.031 0.257-1.887 0.331-2.907C123.588 787.557 64 721.325 64 640.176V273.067c0-87.975 69.767-159.289 155.826-159.289h584.347c86.063 0 155.826 71.314 155.826 159.289v367.109c-0.002 87.97-69.765 159.289-155.827 159.289z" fill="#1296db" p-id="14740"></path></svg>