<?xml version="1.0" standalone="no"?><!DOCTYPE svg PUBLIC "-//W3C//DTD SVG 1.1//EN" "http://www.w3.org/Graphics/SVG/1.1/DTD/svg11.dtd"><svg t="1753286141048" class="icon" viewBox="0 0 1387 1024" version="1.1" xmlns="http://www.w3.org/2000/svg" p-id="9522" xmlns:xlink="http://www.w3.org/1999/xlink" width="270.8984375" height="200"><path d="M693.710452 0C1039.36 0 1387.354839 426.644645 1387.354839 512 1387.354839 596.793806 1040.978581 1024 693.710452 1024 345.616516 1024 0 597.388387 0 512 0 426.413419 347.069935 0 693.710452 0z m0 265.381161c-89.517419 0-172.263226 47.004903-217.021936 123.30942a243.249548 243.249548 0 0 0 0 246.651871c44.75871 76.304516 127.504516 123.309419 217.021936 123.309419a252.63071 252.63071 0 0 0 177.251096-72.241548 244.603871 244.603871 0 0 0 73.331613-174.410323c0.033032-65.403871-26.359742-128.165161-73.331613-174.410323A252.63071 252.63071 0 0 0 693.677419 265.381161z" fill="#4285F4" p-id="9523"></path></svg>