<?xml version="1.0" standalone="no"?><!DOCTYPE svg PUBLIC "-//W3C//DTD SVG 1.1//EN" "http://www.w3.org/Graphics/SVG/1.1/DTD/svg11.dtd"><svg t="1753602762716" class="icon" viewBox="0 0 1024 1024" version="1.1" xmlns="http://www.w3.org/2000/svg" p-id="81622" xmlns:xlink="http://www.w3.org/1999/xlink" width="200" height="200"><path d="M85.44 85.44h853.12v853.12H85.44z" fill="#91EDE9" p-id="81623"></path><path d="M976.96 951.36H55.36v-185.6s81.92-67.2 121.6-70.4c50.56-3.84 63.04 15.36 113.28 23.68 52.48 8.32 86.4-46.72 138.56-36.48 53.44 10.56 122.24 50.56 166.4 49.28 93.12-3.2 87.68-20.8 164.16-4.48 32.64 7.04 67.2-61.44 121.6-51.2 27.52 5.44 96 10.88 96 10.88z" fill="#48ACBA" p-id="81624"></path><path d="M947.2 951.36H42.56V780.8s84.16-46.08 123.84-48.96c50.56-3.84 60.8 33.6 111.04 41.6 52.48 8.96 71.36-43.52 123.52-33.28 53.44 10.56 96.96 61.44 140.8 59.84 93.44-3.2 98.56-48.32 175.04-32 32.64 7.04 40.64 23.36 117.44 5.76s112.96 7.04 112.96 7.04z" fill="#2B3C5A" p-id="81625"></path><path d="M542.08 181.44a72.64 72.64 0 1 0-60.16 0l-1.6 53.12H480l-101.12 7.68a12.8 12.8 0 0 0-11.84 12.8v27.52a12.8 12.8 0 0 0 11.84 12.8l99.2 7.68-4.8 178.24c-1.6 53.76-10.24 119.68-62.72 131.2a83.2 83.2 0 0 1-17.92 1.92c-31.68 0-67.84-38.72-91.2-78.72a268.8 268.8 0 0 1 28.16-10.24c5.44-1.6 6.4-9.6 1.92-12.8a223.68 223.68 0 0 1-79.68-89.6c-2.24-5.12-9.6-5.44-11.84-0.64a277.44 277.44 0 0 0-15.04 38.4 266.24 266.24 0 0 0-8.64 118.08l0.32 2.56c0.96 5.12 7.04 6.72 10.88 3.2a234.56 234.56 0 0 1 22.4-19.2C292.8 700.8 436.16 768 512 768c75.84 0 219.2-67.2 262.08-202.56a234.56 234.56 0 0 1 22.4 19.2c3.52 3.52 9.92 1.92 10.88-3.2v-1.6l0.32-0.96a267.2 267.2 0 0 0-8.64-118.08 277.44 277.44 0 0 0-15.04-38.4c-2.24-4.8-9.6-4.48-11.84 0.64a224 224 0 0 1-79.04 89.6c-4.8 3.2-3.84 10.88 1.6 12.8a264.64 264.64 0 0 1 28.16 10.24c-23.36 39.68-59.84 78.72-91.52 78.72a82.88 82.88 0 0 1-17.6-1.92c-52.8-11.52-61.44-77.44-63.04-131.2l-4.48-178.24 99.2-7.68a12.8 12.8 0 0 0 11.52-12.8v-27.52a12.8 12.8 0 0 0-11.84-12.8L544 234.56z m12.8-66.24a42.56 42.56 0 1 1-85.44 0 42.56 42.56 0 0 1 85.12 0z" fill="#FF915C" p-id="81626"></path><path d="M367.04 286.4a8.64 8.64 0 0 0 7.68 8.64l103.04 8 28.48-28.48a3.2 3.2 0 0 0-2.56-5.76h-136.64z m409.92 135.04a3.84 3.84 0 0 1 6.72 0.64 277.44 277.44 0 0 1 15.36 38.72 267.2 267.2 0 0 1 8.32 120.64c-0.96 5.12-7.36 6.72-10.88 3.2a241.92 241.92 0 0 0-47.36-35.84 6.4 6.4 0 0 1-2.88-8.32c14.4-32.32 24.96-71.04 30.08-117.12a4.16 4.16 0 0 1 0.64-1.92z" fill="#8A380F" p-id="81627"></path><path d="M541.76 179.2L544 234.56l-24.96 23.36a4.16 4.16 0 0 1-7.04-3.2V179.2z m243.2 332.8c-16.96 170.56-187.52 256-272.96 256V275.2a6.4 6.4 0 0 1 6.4-6.4h138.56v14.08a12.8 12.8 0 0 1-11.52 12.8l-99.2 7.36 4.48 178.24c1.6 53.76 10.24 119.68 62.72 131.2a80.96 80.96 0 0 0 17.6 1.92 21.44 21.44 0 0 0-15.36 7.04 176.32 176.32 0 0 1-79.36 60.8c91.84 4.16 217.92-58.24 240-259.84z" fill="#8A380F" p-id="81628"></path><path d="M520.64 170.24c-4.8 0.32-8.64 4.16-8.64 8.96s3.84 8.64 8.64 8a72.64 72.64 0 0 0 42.56-20.8 72.64 72.64 0 0 0 21.44-50.88 0.32 0.32 0 0 0-0.32-0.32 0.32 0.32 0 0 0-0.64 0c-4.16 28.8-30.4 51.52-63.04 55.04" fill="#8A380F" p-id="81629"></path></svg>